<svg xmlns="http://www.w3.org/2000/svg" width="1100" height="620" viewBox="0 0 1100 620" font-family="Helvetica, Arial, sans-serif">
  <defs>
    <marker id="arrow" viewBox="0 0 10 10" refX="8" refY="5" markerWidth="6" markerHeight="6" orient="auto-start-reverse">
      <path d="M2 1L8 5L2 9" fill="none" stroke="context-stroke" stroke-width="1.5" stroke-linecap="round" stroke-linejoin="round"/>
    </marker>
  </defs>
  <rect width="1100" height="620" fill="#ffffff"/>

  <rect x="300" y="20" width="420" height="90" rx="14" fill="#f5f5f5" stroke="#999999" stroke-dasharray="5 4"/>
  <text x="316" y="42" font-size="13" font-weight="600" fill="#444441">Digital channels</text>
  <rect x="320" y="52" width="180" height="42" rx="6" fill="#dae8fc" stroke="#6c8ebf"/>
  <text x="410" y="78" font-size="12" text-anchor="middle" fill="#0c447c">Mobile app</text>
  <rect x="520" y="52" width="180" height="42" rx="6" fill="#dae8fc" stroke="#6c8ebf"/>
  <text x="610" y="78" font-size="12" text-anchor="middle" fill="#0c447c">Internet bank</text>

  <line x1="510" y1="110" x2="510" y2="134" stroke="#666666" marker-end="url(#arrow)"/>
  <rect x="400" y="136" width="220" height="44" rx="6" fill="#d5e8d4" stroke="#82b366"/>
  <text x="510" y="155" font-size="12" text-anchor="middle" fill="#173404">API gateway / BFF</text>
  <text x="510" y="171" font-size="10" text-anchor="middle" fill="#3b6d11">REST + WebSocket</text>

  <rect x="30" y="205" width="700" height="215" rx="16" fill="#e8f5f0" stroke="#1d9e75" stroke-dasharray="5 4"/>
  <text x="48" y="228" font-size="13" font-weight="600" fill="#0f6e56">Investment platform (new, granular services)</text>

  <rect x="52" y="244" width="200" height="56" rx="6" fill="#dae8fc" stroke="#6c8ebf"/>
  <text x="152" y="266" font-size="12" text-anchor="middle" fill="#0c447c">Order &amp; execution</text>
  <text x="152" y="283" font-size="10" text-anchor="middle" fill="#185fa5">lifecycle, saga orchestration</text>
  <rect x="272" y="244" width="200" height="56" rx="6" fill="#dae8fc" stroke="#6c8ebf"/>
  <text x="372" y="266" font-size="12" text-anchor="middle" fill="#0c447c">Portfolio &amp; positions</text>
  <text x="372" y="283" font-size="10" text-anchor="middle" fill="#185fa5">positions, P&amp;L, position holds</text>
  <rect x="492" y="244" width="200" height="56" rx="6" fill="#dae8fc" stroke="#6c8ebf"/>
  <text x="592" y="266" font-size="12" text-anchor="middle" fill="#0c447c">Instrument &amp; search</text>
  <text x="592" y="283" font-size="10" text-anchor="middle" fill="#185fa5">securities catalogue</text>

  <rect x="52" y="330" width="200" height="56" rx="6" fill="#dae8fc" stroke="#6c8ebf"/>
  <text x="152" y="352" font-size="12" text-anchor="middle" fill="#0c447c">Market data</text>
  <text x="152" y="369" font-size="10" text-anchor="middle" fill="#185fa5">near real-time prices, fan-out</text>
  <rect x="272" y="330" width="200" height="56" rx="6" fill="#dae8fc" stroke="#6c8ebf"/>
  <text x="372" y="352" font-size="12" text-anchor="middle" fill="#0c447c">Contract service</text>
  <text x="372" y="369" font-size="10" text-anchor="middle" fill="#185fa5">agreement, MiFID profile</text>
  <rect x="492" y="330" width="200" height="56" rx="6" fill="#dae8fc" stroke="#6c8ebf"/>
  <text x="592" y="352" font-size="12" text-anchor="middle" fill="#0c447c">Regulatory reporting</text>
  <text x="592" y="369" font-size="10" text-anchor="middle" fill="#185fa5">nightly report to FI</text>

  <rect x="30" y="446" width="1040" height="40" rx="6" fill="#e1d5e7" stroke="#9673a6"/>
  <text x="550" y="471" font-size="12" font-weight="600" text-anchor="middle" fill="#3c3489">Event backbone (Kafka) — transactional outbox, at-least-once, idempotent consumers</text>

  <line x1="152" y1="420" x2="152" y2="442" stroke="#9673a6" marker-end="url(#arrow)"/>
  <line x1="372" y1="420" x2="372" y2="442" stroke="#9673a6" marker-end="url(#arrow)"/>

  <rect x="30" y="520" width="210" height="60" rx="6" fill="#ffe6cc" stroke="#d79b00"/>
  <text x="135" y="543" font-size="12" text-anchor="middle" fill="#633806">Funds API (facade)</text>
  <text x="135" y="560" font-size="10" text-anchor="middle" fill="#854f0b">reserve / settle / release</text>
  <line x1="135" y1="420" x2="135" y2="516" stroke="#d79b00" stroke-width="2" marker-end="url(#arrow)"/>
  <text x="145" y="437" font-size="10" fill="#854f0b">sync, ACID</text>

  <rect x="270" y="520" width="210" height="60" rx="6" fill="#f5f5f5" stroke="#999999"/>
  <text x="375" y="543" font-size="12" text-anchor="middle" fill="#2c2c2a">Bank core (monolith)</text>
  <text x="375" y="560" font-size="10" text-anchor="middle" fill="#5f5e5a">accounts · money · owns holds</text>
  <line x1="240" y1="550" x2="266" y2="550" stroke="#d79b00" stroke-width="2" marker-end="url(#arrow)"/>

  <rect x="520" y="520" width="200" height="60" rx="6" fill="#e1d5e7" stroke="#9673a6"/>
  <text x="620" y="543" font-size="12" text-anchor="middle" fill="#3c3489">Broker gateway (ACL)</text>
  <text x="620" y="560" font-size="10" text-anchor="middle" fill="#534ab7">idempotent, anti-corruption</text>
  <line x1="592" y1="420" x2="592" y2="442" stroke="#9673a6" marker-end="url(#arrow)"/>

  <rect x="750" y="520" width="150" height="60" rx="6" fill="#f5f5f5" stroke="#999999"/>
  <text x="825" y="548" font-size="12" text-anchor="middle" fill="#2c2c2a">External broker</text>
  <text x="825" y="564" font-size="10" text-anchor="middle" fill="#5f5e5a">REST / FIX</text>
  <line x1="720" y1="550" x2="746" y2="550" stroke="#9673a6" stroke-width="2" marker-end="url(#arrow)"/>

  <rect x="930" y="520" width="140" height="60" rx="6" fill="#f5f5f5" stroke="#999999"/>
  <text x="1000" y="548" font-size="12" text-anchor="middle" fill="#2c2c2a">Regulator (FI)</text>
  <text x="1000" y="564" font-size="10" text-anchor="middle" fill="#5f5e5a">nightly report</text>

  <rect x="790" y="205" width="150" height="50" rx="6" fill="#f8cecc" stroke="#b85450"/>
  <text x="865" y="228" font-size="12" text-anchor="middle" fill="#501313">Data warehouse</text>
  <text x="865" y="244" font-size="10" text-anchor="middle" fill="#a32d2d">analytics / BI only</text>
  <rect x="790" y="272" width="150" height="50" rx="6" fill="#f8cecc" stroke="#b85450"/>
  <text x="865" y="295" font-size="12" text-anchor="middle" fill="#501313">CRM</text>
  <text x="865" y="311" font-size="10" text-anchor="middle" fill="#a32d2d">read model of positions</text>
  <rect x="790" y="339" width="150" height="50" rx="6" fill="#f8cecc" stroke="#b85450"/>
  <text x="865" y="362" font-size="12" text-anchor="middle" fill="#501313">AML monitoring</text>
  <text x="865" y="378" font-size="10" text-anchor="middle" fill="#a32d2d">must cover investments</text>
  <rect x="960" y="272" width="110" height="50" rx="6" fill="#f8cecc" stroke="#b85450"/>
  <text x="1015" y="295" font-size="12" text-anchor="middle" fill="#501313">Notifications</text>
  <text x="1015" y="311" font-size="10" text-anchor="middle" fill="#a32d2d">e-mail / SMS</text>

  <line x1="865" y1="442" x2="865" y2="395" stroke="#9673a6" marker-end="url(#arrow)"/>
  <line x1="1015" y1="442" x2="1015" y2="328" stroke="#9673a6" marker-end="url(#arrow)"/>

  <rect x="30" y="596" width="1040" height="0" fill="none"/>
  <text x="30" y="610" font-size="10" fill="#5f5e5a">Orange = synchronous, ACID inside the core.  Purple = asynchronous events / external integration.  Red = existing systems, consume events only.</text>
</svg>
